<?xml version="1.0" encoding="UTF-8"?>
<svg data-bbox="0.042 -0.038 4999.943 3323.181" viewBox="0 0 5000 3323.2" xmlns="http://www.w3.org/2000/svg" data-type="shape">
    <g>
        <path d="M4997.1 1657.1c-19.717 79.484-131.6 103.21-180.75 17.228-8.035 2.799-103.79 98.53-117.87 117.71 22.519 56.287 19.08 107.3-39.026 140.08-39.916 22.517-87.269 12.31-116.5-19.303-25.545-27.627-38.83-82.055.188-135.23l-165.88-171.06c-29.635 24.815-62.6 33.315-99.03 21.704-36.668-11.687-58.256-37.972-67.103-75.825h-429.21c4.34 58.731-7.71 114.43-30.416 170.7h391.86c147.86 154.59 296.29 305.56 442.41 460.73 33.43-22.504 68.371-27.185 104.63-10.975 60.566 27.077 77.52 112.27 23.51 160.52-32.197 28.761-84.053 32.156-119.92 7.853-41.44-28.081-52.995-71.938-33.408-128.52-8.751-15.449-268.27-281.95-273.53-287.35-167.58-172.25-156.02-166.54-168.76-166.51-415.97.975-363.1-.037-379.45 1.168-7.426 7.663-12.05 17.003-17 26.763 56.282 86.303 41.51 169.54-13.743 252.27h386.53c9.674-53.924 59.899-92.51 119.9-79.096 39.527 8.836 70.652 49.082 71.679 93.007 1.005 42.966-28.947 84.128-69.075 94.833-54.273 14.48-102.33-10.18-120.57-70.783h-390.52c2.582 20.44 3.185 40.169 3.55 59.108 4.847 3.383-16.942 3.155 290.55 2.382 7.362-.019 11.874 3.098 16.463 8.017 91.797 98.372 187.68 192.81 280.02 290.66 8.805 9.331 17.89 18.404 28.523 26.66 57.492-34.27 115.37-14.654 141.29 26.895 23.043 36.937 15.535 92.272-16.258 122.8-31.29 30.043-82.476 34.834-117.17 10.399-36.827-25.941-56.689-74.663-32.925-125.39-.509-4.313-3.8-6.937-6.545-9.85-29.905-31.725-296.26-307.01-296.48-307.23-4.269-4.388-8.498-7.068-14.894-7.048-306.77.956-264.94-.067-279.87 1.125-10.496 26.344-22.8 52.21-42.997 74.521 69.964 76.194 142.75 148.45 211.44 225.98 31.195-18.168 62.615-25.28 95.943-10.366 71.292 31.902 72.744 118.4 28.19 160.08-56.385 52.76-142.53 17.907-158.55-49.008-5.877-24.559-2.48-48.453 10.169-70.872-69.95-78.22-141.26-154.25-213.51-231.25-19.78 17.721-38.804 34.767-57.582 51.592-.363 1.002-.868 1.675-.783 2.263 4.077 27.983-8.684 47.326-29.653 64.626-25.577 21.102-49.167 44.612-73.61 67.086-1.972 1.812-4.36 3.312-5.304 8.731 90.815 96.515 186.01 190.84 280.28 287.78 61.117-37.305 119.03-14.053 143.1 29.934 21.316 38.96 14.202 87.334-16.873 117.03-30.995 29.62-80.575 35.255-116.62 13.26-42.03-25.647-53.768-69.253-35.004-133.43-89.634-94.18-181.96-186.86-275.9-281.47-6.817 15.074-17.575 24.558-19.178 38.45-5.14 44.53-32.34 74.181-66.398 99.01-56.737 41.36-98.505 46.047-119.93 52.867-.891.284-1.59 1.174-4.154 3.167 48.46 49.437 96.673 98.055 146.48 146.25 56.29-25.43 111.18-3.902 134.28 40.896 20.883 40.496 11.496 89.346-22.378 118.57-54.136 46.702-146.01 18.168-158.27-61.001-4.203-27.13 3.852-51.523 19.357-74.737-56.61-54.893-109.39-112.62-166.59-165.92-19.573 1.125-37.963 5.932-56.584 9.075-191.54 32.337-204.01 22.681-230.07 49.003-1.729 3.365.083-3.043-.983 157.94-.054 8.038 2.186 14.18 7.81 19.916 229.27 233.86 198.66 204.28 209.58 212.73 108.45-72.184 211.58 61.571 127.15 144.99-32.17 31.786-78.97 37.06-115.52 13.018-43.554-28.648-56.614-75.105-36.187-128.72.01-3.043-2.013-4.946-3.948-6.832-68.449-66.709-133.51-136.79-202.04-203.38-16.263-15.804-23.236-31.115-22.372-53.686 1.777-46.368.676-92.847.678-139.28 0-3.978.896-8.13-2.016-13.244-83.529 6.533-142.52-33.72-185.14-102.76-5.228 2.652-3.76 6.86-3.762 10.203-.067 111.51-.007 223.01-.003 334.52.001 23.905 10.315 45.398 16.043 67.934 4.984 19.61 10.94 39.067 19.098 57.272 117.64 31.98 93.656 186.59-13.807 192.54-42.507 2.357-84.748-28.313-96.265-69.894-14.046-50.71 8.005-90.423 68.776-122.15-22.83-87.258-15.019-54.295-25.682-93.262-5.078-18.558-3.605 5.027-3.51-370.77.001-2.674-.377-5.348-.526-7.323-2.54-3.869-6.018-4.27-9.302-4.99-44.152-9.679-74.33-46.173-74.53-91.649-1.243-282.17-.607-313.47-.607-2500.6 4.633-8.3 3.324-4.525 95.313-52.76 14.622-7.667 28.877-9.987 42.708 1.082 13.907 11.13 19.268 29.568 14.29 46.77-2.042 7.058-5.51 12.334-13.551 13.1-17.304 1.65-19.673-13.372-25.265-28.365-27.99 10.226-52.261 26.09-77.003 39.02-3.045 7.049-1.912-95.204-2.061 1446.8-.105 1089.1-1.498 1029.5 2.769 1047.1 6.908 28.386 37.203 50.47 66.256 48.037 2.69-.226 5.437-.332 8.487-3.165 1.098-13.184 1.099-27.191.053-40.205-2.981-2.87-5.375-2.386-7.738-2.377-20.816.077-32.142-10.746-32.466-31.776-.306-19.883-1.105-269.7 1.242-280.54 3.81-17.601 31.25-19.876 33.988.867 1.37 10.384.79-4.248 1.266 256.17.01 4.988-.796 10.163 2.56 16.296h35.183c3.704 4.012 3.34 7.164 3.392 10.174.298 17.28 1.54 34.617.58 51.83-1.399 25.116 6.545 46.737 21.612 66.048 30.39 38.944 69.164 62.384 119.78 62.476 40.594.075 65.26-20.26 89.088-25.93 9.716-2.313 5.31-5.782 26.963-41.14-15.177-17.486-31.16-34.208-46.18-54.327-10.683 26.966-26.023 45.002-56.236 39.37-21.907-4.085-37.185-21.39-41.147-44.965-3.2-19.04 8.304-36.262 36.8-54.24-2.857-9.865-1.012-20.112 1.663-30.096l-66.034-58.638c-35.23 3.266-54.34-5.34-64.744-28.762-8.614-19.39-3.099-44.384 12.95-58.69 16.043-14.3 41.226-16.813 59.786-5.965 22.84 13.35 28.832 32.973 20.895 70.906 20.942 16.841 39.515 37.481 61.593 54.178 25.78-12.035 47.097-6.236 64.578 14.02 9.28 10.754 10.452 23.853 7.85 37.466-2.606 13.638-12.698 22.7-21.069 33.116 21.228 28.188 47.456 50.996 69.007 77.984-1.905 14.821-12.477 26.102-16.942 42.477 63.335-6.2 124.08-16.85 185.68-27.288V2565.7c-50.483-51.633-147.45-152.53-238.12-238.67-14.379-13.66-22.098-28.356-20.356-48.248.847-9.673.146-19.482.146-30.08-11.6-.235-18.302-6.987-25.11-13.574-58.747-56.815-123.31-107.09-182.96-162.9-40.175-37.586-37.26-35.652-40.18-35.278-4.042 2.95-1.257-.051-2.533 105.85-.095 7.836 2.703 13.421 8.238 18.666 12.762 12.09 26.38 23.435 35.94 39.602 30.25-6.631 52.783 3.035 62.101 33.465 14.188 46.33-39.367 85.668-80.493 51.696-19.112-15.788-22.362-34.512-11.057-64.677-1.717-6.764-7.502-10.828-11.919-15.81-4.713-5.32-9.229-11.162-14.953-15.177-19.39-13.598-24.744-31.518-23.744-54.915 5.267-123.22-9.027-145.6 12.195-154.87 11.04-4.82 19.746.594 27.594 7.645 254.24 228.44 105.93 95.037 242.73 216.56 5.944 5.28 12.217 7.539 20.215 7.476 72.523-.573 145.06 1.14 217.57-1.473 9.094-.328 16.347 2.208 22.864 8.598 72.342 70.924 147.86 138.59 217.64 212.14 2.323 2.447 4.382 5.303 7.885 6.168 11.311 2.793 21.433 8.006 30.861 15.654 31.79-25.29 59.92-53.836 90.997-84.439-19.798-.608-32.273-10.181-44.568-20.249-4.752-3.892-10.338-1.743-15.676-1.045-48.57 6.352-92.339 7.056-127.07-24.811-52.948-48.578-103.69-99.432-153.63-151.08-4.714-4.876-9.225-6.818-15.87-6.75-77.948.799-155.9 1.248-233.85 2.099-13.733.15-10.502 1.05-243.5-216.12-47.412-44.19-54.045-48.108-54.017-63.248.109-56.6.687-113.22-.646-169.79-.505-21.456 19.807-39.712 44.2-34.853 5.044 1.005 8.329 4.26 11.723 7.576 266.09 259.9 237.01 234.96 251.58 245.16 39.726-.879 56.805 7.71 64.664 32.268 14.936 46.672-38.404 87.955-80.446 52.699-17.407-14.597-21.436-34.227-10.605-59.416-79.014-80.716-161.91-158.98-242.78-239.5-4.132 2.569-2.395-9.96-2.972 153.47-.022 6.173 1.683 10.83 6.388 15.156 255.86 235.11 247.92 240.02 270.24 240.14 77.278.449 154.55.409 231.81-1.373 8.237-.19 14.092 2.18 19.762 7.826 46.346 46.143 92.727 92.252 139.42 138.04 35.631 34.94 47.801 42.708 100.08 39.196 10.755-.722 21.644-.27 33.108-2.901 5.998-20.928 18.332-35.788 40.824-40.163 22.175-4.313 38.158 7.715 53.548 20.9 2.427-1.46 4.353-2.233 5.79-3.542 70.158-63.889 121.42-104.85 109.22-199.87-.126-.977-.558-1.928-.94-2.853-.106-.254-.547-.37-1.98-1.265-64.846 48.488-137.48 71.539-218.89 58.303-2.366 3.687-3.844 5.906-5.24 8.176-27.953 45.523-93.073 24.403-95.716-23.068-.482-8.65-3.606-14.388-9.848-19.869-24.78-21.764-25.664-28.733-38.175-32.592-20.04-6.183-34.86-27.682-35.11-49.918-.217-19.419 14.07-39.87 32.381-46.357 21.146-7.49 43.504-1.18 56.65 15.984 13.162 17.188 13.058 44.898-.27 62.88-1.795 2.422-3.747 4.728-6.14 7.734 4.81 8.592 11.836 14.425 20.371 19.274 6.105-3.582 11.966-6.87 18.506-8.628 22.159-5.958 42.231 1.414 56.596 21.906 4.364 6.225 9.522 9.178 16.608 9.913 95.379 9.884 171.29-23.258 226.34-102.44 1.46-2.1 3.704-4.094 2.667-7.498-2.933-2.207 12.183-2.373-256.54-2.858-7.647-.014-13.604-1.92-19.116-7.242-22.669-21.886-45.763-43.334-68.3-65.354-7.286-7.12-14.965-9.953-25.267-9.921-106.39.334-216.39.27-350.34.27-27.846-25.91-240.26-235.55-267.56-262.55-8.479-8.388-17.007-12.182-28.754-10.94-36.556 3.865-47.769-11.516-47.287-45.49.863-60.657.224-121.33.31-182 .06-42.568 27.471-29.086 60.63-32.042 14.43-1.286 25.18 4.164 35.157 14.272 173.26 175.54 197.8 198.21 227.51 228.27 4.92 4.978 10.266 6.9 17.177 6.908 518.63.536 478.96 2.859 490.26-3.06 46.978-24.59 93.255 23.569 70.148 68.9-22.052 43.265-92.612 32.13-94.17-29.373-5.809-3.748-11.04-2.58-16-2.58-152.52-.011-305.04-.072-457.55.356-12.804.036-22.019-3.502-31.176-12.688-22.36-22.43-213.3-213.22-236.74-234.89-9.643.13-19.054-.929-29.243 1.453v186.81c12.297 0 23.42.138 34.538-.057 5.797-.101 10.08 1.89 14.31 6.059 77.244 76.1 153.52 153.19 232.33 227.7 9.602 9.076 19.544 17.913 28.178 27.859 7.324 8.437 15.314 11.362 26.444 11.316 111.51-.46 223.01-.242 334.52-.675 11.415-.044 19.705 3.327 27.786 11.307 22.42 22.14 45.688 43.417 68.44 65.225 4.2 4.027 8.55 5.9 14.415 5.912 275.14.61 260.51 1.881 263.98-.61 23.551-43.082 12.394-113.96-10.914-139.74-9.108 2.46-59.62 96.443-182.17 93.767-15.584-.34-31.19-.477-46.768-.043-11.58.323-20.804-3.49-29.285-11.384-8.2-7.633-78.24-72.155-86.283-78.399-39.423 3.96-54.843-2.638-66.095-28.094-19.746-44.669 30.724-85.342 71.503-61.218 21.87 12.937 27.735 31.61 20.307 64.68 1.197 5.309 2.486 3.117 73.807 67.947 6.599 5.998 13.787 9.385 22.557 10.238 96.594 9.408 166.48-17.867 239.06-152.95 2.057-3.827 4.696-7.53 4.584-11.76-48.43-51.232-52.776-51.274-115.81-112.79-8.56-8.353-16.901-12.09-29.273-12.078-278.33.31-428.01-2.16-580.57.562-13.256.236-23.141-3.712-32.638-12.697-70.742-66.938-163.92-161.16-231.63-231.28-4.62-4.786-9.644-6.686-16.195-6.615-16.943.182-33.892-.033-50.837-.251-17.668-.228-28.497-9.118-31.996-26.464-2.069-10.25-.796 65.518-1.326-1195.6-.004-9.944 4.039-15.09 11.844-21.234 15.67-12.336 32.57-14.476 51.388-13.935 129.35 3.722 127.09-2.875 138.81 9.44 16.353 17.18 33.068 34.021 49.835 50.802 10.822 10.831 20.348 12.372 33.94 5.425 24.06-12.3 29.39-22.042 50.084-16.958 88.35 21.706 161.36 67.103 216.85 139.71 7.182 9.396 13.993 19.075 21.4 29.202 38.391-.392 73.728 10.966 106.61 30.83 32.82 19.826 56.354 48.158 74.204 81.314h247.94c21.158-70.591 77.185-86.213 115.75-78.96 42.338 7.963 74.921 46.853 76.632 90.866 2.675 68.846-70.446 127.12-144.37 86.112-24.245-13.451-37.965-35-46.582-60.717h-233.86c6.623 24.047 7.623 47.67 12.357 71.697 48.816 18.029 91.846 43.792 117.59 91.483 20.274 2.079 36.436 9.988 44.41 29.433 7.557 18.435 4.41 35.78-8.288 52.39 39.715 25.478 65.14 59.576 73.052 106.01h251.81c8.534-32.706 25.693-59.53 57.974-73.521 32.401-14.044 63.479-9.708 93.989 10.96 49.376-51.644 98.448-102.97 149.22-156.08-24.358-48.33-4.73-106.07 41.69-131.07 40.638-21.888 90.374-11.818 121.34 24.447 28.064 32.862 28.561 84.808 2.328 120.82-26.905 36.929-83.37 52.364-137.96 19.274-51.21 48.71-102.41 98.203-151.44 150.64 42.84 93.763-43.65 171.18-125.55 133-26.66-12.427-41.638-34.676-50-62.162h-250.35c-2.915 17.469-7.101 34.098-14.021 51.094 51.295 44.175 83.527 96.88 72.212 169.18 57.128 53.374 90.049 118.75 89.995 199.77h269.08c9.728-33.493 28.482-59.307 61.85-70.894 32.403-11.252 63.488-6.778 90.938 13.472 7.22-4.217 159.28-156.34 169.91-169.78-39.59-62.494-21.826-119.52 28.797-149.51 84.729-50.194 178.23 45.246 130.54 135.12-12.286 23.154-31.352 38.928-56.74 46.203-24.88 7.13-48.934 2.28-72.861-7.406-58.82 56.89-115.88 114.66-173.09 173.56 46.143 86.909-36.2 175.49-126.85 132.97-27.665-12.976-43.212-35.924-51.79-64.795h-271.01c-4.263 3.85-4.505 9.065-5.596 13.97-12.298 55.293-32.392 61.676-67.255 67.86-2.12 4.648-4.471 9.803-7.28 15.958 13.447 19.048 29.655 36.51 40.664 57.66 10.826 20.799 16.845 43.373 24.83 66.154h438.62c13.554-46.253 43.113-75.842 91.63-77.745 54.496-2.138 85.648 30.006 100.43 83.263 56.028-50.282 105.65-104.03 158.32-155.62-21.911-25.736-33.396-53.21-28.978-85.55 9.964-72.921 91.824-105.77 150.86-65.635 57.903 39.367 59.738 134.48-15.657 169.71-24.186 11.3-49.063 11.752-75.007 2.75-65.308 62.612-127.61 127.62-192.98 192.15 57.553 59.306 114.74 118.24 172.48 177.74 33.756-10.915 66.702-12.78 95.433 9.29 4.338-.522 5.756-2.488 7.416-4.18 136.67-139.24 131.59-130.81 133.05-142.43 5.134-40.859 37.78-75.275 76.785-81.64 76.05-12.409 126.96 56.401 111.06 120.5zm-1265.5 10.758c38.156-66.32 4.549-216.52-57.624-258.02-48.244 8.537-74.377-44.878-45.205-78.427 18.942-21.783 49.368-22.876 71.27-2.558 9.619 8.922 15.22 9.66 27.158 4.226 9.455-4.304 14.446-12.137 17.221-21.498 36.72-123.86-33.268-221.32-143.47-286.89-13.579-8.08-27.665-15.366-43.86-21.198-6.316 12.139-16.035 19.427-28.716 22.879-12.679 3.451-25.69 5.484-37.828-.09-26.954-12.382-32.878-34.753-26.394-60.96-1.35-1.732-1.861-2.663-2.614-3.316-50.196-43.548-96.231-91.548-145.51-136.08-12.371-11.179-22.657.647-47.313-11.156-30.507-14.603-46.686-45.408-41.292-79.663 4.196-26.648 30.083-59.04 62.865-58.382 25.438.512 38.386-14.429 51.212-31.672 3.624-4.872 6.985-10.064 9.641-15.512 33.56-68.826 34.172-137.72-1.243-205.95-24.445-47.1-64.05-75.13-115.25-87.309-4.438-1.055-9.145-2.794-13.491-.477-1.618 2.217-1.199 4.242-.463 6.14 17.134 44.225 7.53 52.479 23.18 64.514 23.945 18.414 30.262 36.794 21.804 59.685-7.448 20.155-29.776 35.194-50.73 34.168-43.294-2.12-66.858-60.3-22.253-90.001 2.488-1.657 5.477-2.84 7.085-7.271-11.752-90.76-85.088-193.44-228.33-236.25-12.827-3.834-23.536-2.538-35.056 5.726-27.348 19.618-52.5 17.368-77.153-5.738-45.284-42.438-45.155-52.763-64.476-52.3-120.63 2.89-121.46.13-127.45 4.525-4.028 8.182-5.363 1010.7-1.348 1022.9 2.552 1.742 5.645 1.548 8.66 1.556 49.48.127 98.964.518 148.44.08 18.71-.165 12.24 1.714 99.095 89.2 44.88 45.208 90.182 89.997 135.13 135.14 6.926 6.957 14.43 9.809 24.373 9.645 226.34-3.725 107.2 1.717 292.93 28.5 3.026.437 6.575 2.696 9.73-1.988l-56.066-51.396c-37.459 13.686-66.88 1.341-75.947-30.984-11.274-40.201 33.17-81.713 75.785-51.715 20.084 14.138 22.843 34.719 21.097 56.436l98.036 88.794c29.496-18.972 50.561-19.852 69.521-3.537 39.49 33.98 11.305 96.32-36.8 88.316-29.216-4.86-43.246-19.744-45.684-48.178-5.329-1.216-10.842-2.866-16.476-3.7-101.43-15.01-179.58-39.261-245.72-36.355-32.02 1.407-56.208.69-119.02.69-16.944-16.128-221.35-221.74-225.69-226.12-4.78-4.81-9.322-7.929-16.59-7.87-146.53 1.191-141.48-1.493-146.02 3.123v119.49c4.839 2.423 8.974 1.755 12.986 1.752 16.606-.012 33.216 0 49.818-.33 15.203-.301-7.963-12.125 248.31 239.15 8.155 7.997 16.584 10.986 27.91 10.982 196.23-.073 392.46.279 588.69.284 9.15 0 15.842 2.667 22.493 8.962 36.173 34.237 72.757 68.042 109.21 101.98 1.942 1.808 3.58 4.19 7.439 4.036zm-374.16 785.73c-35.588-38.566-145.48-141.97-205.08-199.79-4.496-4.362-9.145-6.185-15.325-6.165-196.56.654-182.58-1.413-187.15 3.26 0 12.071.046 24.907-.026 37.742-.036 6.632 4.082 7.469 32.794 36.487 54.554 55.136 109.22 110.16 165.28 163.78 2.135 2.042 3.913 4.835 8.563 4.528 15.369-22.352 37.144-30.143 63.173-20.542 19.229 7.093 29.088 23.103 30.037 43.297 1.386 29.487-15.428 46.123-42.28 54.734v88.58c4.136 2.566 7.482 1.101 10.744.713 18.303-2.176 35.612-8.058 52.768-14.43 39.76-14.77 75.087-35.979 101-70.523 7.297-9.726 12.98-20.34 15.16-33.769-22.482-1.419-36.418-13.763-43.801-33.224-7.775-20.494-1.9-38.439 14.15-54.674zm138.11-1827.2c-8.726-26.26-58.399-64.261-85.846-65.986-5.65 7.33-2.297 68.384-60.164 130.36-13.555 14.517-27.742 26.855-51.01 21.921-14.585-3.093-32.226 11.086-35.977 24.454-7.614 27.135 17.968 53.388 50.999 47.634 6.34-1.104 10.871.737 15.49 5.052 11.108 10.378 22.69 20.25 34.442 30.646 83.898-9.858 156.8.323 230.78 41.87 4.888-5.442 6.692-10.18 7.68-15.14 13.385-67.134-23.154-110.92-84.975-141.15-19.672-9.621-28.6-25.713-29.761-47.136-.652-12.03 3.761-22.508 8.337-32.52zm64.387 341.32c38.264 10.605 71.273 32.342 104.39 53.957 3.383-5.737 1.538-10.012.627-14.174-6.571-30.041-21.71-55.525-43.462-76.723-60.132-58.605-133.66-81.07-216.16-78.413-1.72.055-3.355.472-4.895 3.648l85.156 79.872c38.032-12.2 61.783-2.083 74.345 31.833zm896.42-66.772c-33.225-.123-60.882 27.448-60.896 60.708-.015 33.842 28.629 63.547 61.188 63.456 34.737-.097 61.224-26.875 61.539-62.216.305-34.221-27.241-61.82-61.83-61.948zm191.24 1298.4c-34.764.089-60.764 25.874-60.723 60.223.04 33.074 28.106 61.888 60.202 61.808 35.75-.089 62.963-25.69 63.084-59.347.124-34.344-28.248-62.771-62.563-62.684m-337.54-725.41c-34.906-.01-61.562 26.206-61.655 60.637-.094 34.718 25.688 61.476 59.445 61.698 34.089.223 61.449-26.406 61.411-59.774-.038-33.804-27.242-62.552-59.201-62.56zm319.97-119.19c32.427.087 60.703-28.989 60.728-62.445.025-33.453-26.846-59.711-61.289-59.89-33.837-.176-60.384 26.387-60.528 60.565-.132 31.203 30.016 61.687 61.089 61.77m-16.342 430.52c-33.09.273-59.46 27.499-59.136 61.057.31 32.051 28.112 61.176 57.988 60.749 35.412-.507 62.188-26.603 62.009-60.437-.184-35.039-26.577-61.652-60.862-61.369zm-395.26-1250.7c-.118 32.237 27.768 59.857 60.517 59.938 32.982.082 59.6-26.712 59.847-60.241.244-33.269-24.945-59.827-57.142-60.247-34.79-.454-63.098 26.658-63.222 60.549zm-431.06-108.55c-.164-35.376-24.834-61.506-57.912-61.337-33.555.171-61.032 27.538-60.844 60.6.182 32.129 27.918 59.547 59.884 59.197 32.608-.357 59.019-26.583 58.872-58.46m366.74 787.93c-34.79-.007-59.086 23.585-59.011 57.302.076 34.071 26.601 60.701 60.418 60.656 78.81-.106 78.339-117.94-1.407-117.96zm-1461.3 2069.7c32.947.003 58.558-26.362 58.343-60.06-.217-34.115-24.997-60.285-56.962-60.158-34.23.136-60.816 26.513-60.733 60.255.085 34.303 25.481 59.96 59.352 59.963m1497.8-1288.7c-32.312-.189-58.215 26.381-58.69 60.2-.445 31.787 26.228 59.783 56.99 59.816 34.584.037 60.481-25.693 60.723-60.334.232-33.087-25.878-59.488-59.023-59.682m771.89-361.89c-1.301-83.23-118.37-76.784-117.04-.197.581 33.545 27.31 60.019 60.202 59.626 31.444-.376 57.336-27.45 56.836-59.428zm-1472.3 1294.2c.325-30.33-28.581-58.452-60.828-59.178-32.836-.738-58.006 25.115-58.256 59.838-.23 32.074 27.662 59.15 61.142 59.353 31.29.19 57.588-27.049 57.942-60.014zm-252.09 295.47c-.082-34.312-25.274-58.996-60.252-59.037-30.977-.037-58.315 27.868-57.898 59.097.433 32.374 27.278 60.107 58.252 60.18 33.227.079 59.978-26.826 59.898-60.24m626.98-390.71c.108-31.581-26.204-56.77-59.252-56.721-32.284.047-58.509 25.828-58.689 57.696-.192 33.993 24.963 59.963 58.29 60.179 33.927.22 59.532-26.03 59.652-61.154zm63.472-219.47c33.24-.101 60.752-25.83 60.92-56.97.174-32.254-28.231-61.215-59.801-60.971-30.858.239-58.139 26.64-58.275 56.396-.156 34.201 25.328 61.641 57.156 61.544zm56.997-1858.6c-33.314.05-58.989 25.3-59.099 58.12-.11 32.761 24.522 58.134 56.399 58.094 34.221-.043 60.742-25.953 60.626-59.228-.11-31.767-25.795-57.035-57.926-56.986m343.32 1789c.495 33.722 25.123 58.437 57.597 57.799 31.778-.624 56.988-26.733 56.58-58.594-.998-77.755-115.29-75.216-114.18.794zm-1115.3-22.688c.143-8.642-7.356-15.995-16.165-15.85-7.983.131-15.36 7.607-15.46 15.669-.107 8.598 6.59 15.601 15.032 15.718 8.819.122 16.452-7.025 16.592-15.537zm-439.65-98.132c18.533-.454 18.272-30.413-1.097-30.011-8.015.166-14.834 7.056-14.705 14.858.132 8.04 7.756 15.35 15.802 15.153m710.2-987.41c-7.41.1-13.127 6.557-13.256 14.974-.133 8.657 6.707 15.631 15.163 15.459 7.78-.158 13.984-6.417 14.125-14.25.155-8.554-7.517-16.298-16.032-16.184zm-151.39 327.37c-7.777-.043-14.375 6.26-14.622 13.968-.276 8.6 6.72 15.701 15.292 15.522 18.336-.384 18.924-29.381-.67-29.49m151.25-106.09c-18.26.603-16.37 30.727 1.611 30.306 7.893-.185 14.056-7.351 13.666-15.89-.385-8.434-7.014-14.688-15.277-14.416m-532.55 313.01c-8.005.293-14.12 6.653-13.932 14.492.182 7.601 6.937 14.208 14.493 14.175 20.51-.088 19.334-29.396-.561-28.667m-47.462 549.53c-19.581.135-17.897 28.552-1.287 29.25 17.651.742 22.484-29.396 1.287-29.25m512.55-392.58c-.268-8.412-7.047-15.288-14.78-14.993-7.603.29-13.167 6.759-13.107 15.24.144 20.298 28.445 17.234 27.888-.247zm109.39-1144.6c.09-15.759-26.314-22.064-27.85-1.828-.617 8.126 6.161 15.875 13.534 16.066 7.1.184 14.273-6.95 14.315-14.238zm153.66 385.04c.175-9.938-6.346-17.429-13.863-17.563-7.228-.13-13.777 6.03-14.143 13.301-.897 17.834 26.352 20.062 28.006 4.262m-379.57-71.135c-7.437.028-13.562 6.202-13.552 13.661.012 8.028 6.08 14.294 14.02 14.478 7.99.185 14.548-6.26 14.207-13.964-.329-7.42-7.35-14.201-14.676-14.174zm-580.16 938.93c-18.823-.168-18.426 27.696.91 27.547 18.797-.145 16.903-27.389-.91-27.547m500.25-1796.6c-8.855.19-15.443 6.557-15.148 13.917.3 7.493 6.56 13.407 13.923 13.154 16.484-.566 19.477-25.917 1.225-27.071m110.57 1589.9c.53-18.075-25.544-20.829-26.231-3.09-.665 17.223 23.492 21.373 26.231 3.09m-449.12 567.3c.249-6.874-5.783-13.534-12.357-13.646-6.888-.117-13.642 6.567-13.551 13.784.225 17.838 25.326 15.984 25.908-.138m520.94-105.84c-.706-5.964-3.943-11.124-11.637-11.746-6.83-.552-13.447 6.571-12.961 14.04 1.215 18.663 24.784 16.48 24.598-2.294m124.2-169.69c-.963-7.571-5.106-12.101-13.104-12.079-7.326.02-12.175 3.846-13.085 11.217-1.61 13.041 23.872 20.695 26.188.862zm3.951-1672.5c-7.717.974-11.441 5.63-10.896 13.124.477 6.577 3.434 12.048 11.044 12.059 8.962.014 11.166-6.668 11.424-13.824.269-7.442-4.476-10.781-11.572-11.359"/>
        <path d="M4.287 1603.2c13.303-47.2 57.97-72.301 100.11-67.984 40.523 4.151 74.136 33.867 83.669 73.568 1.828 7.613 2.738 15.294 3.521 23.255 44.772 44.679 87.467 91.441 134.04 135.99 32.705-20.58 66.63-24.964 101.33-9.408 9.989-6.068 167.2-162.81 177.39-177.05-65.02-65.321-130.3-130.9-194.32-195.22-66.133 10.713-104.82-6.414-125.39-53.698-17.799-40.928-5.603-88.411 29.546-115.04 58.112-44.026 149.85-10.926 155.01 71.417 1.782 28.466-9.36 52.792-26.039 74.289 4.217 8.098 146.23 153.14 153.33 156.74 15.236-48.795 45.721-81.012 99.364-79.15 46.159 1.602 77.298 27.517 91.916 71.585 12.328 2.791 426.69 2.954 441.92-.055 10.05-43.75 28.814-84.779 54.437-124.53-35.01-22.534-57.129-53.174-66.027-93.874h-277.26c-10.596 32.735-28.733 59.993-64.107 71.013-45.43 14.152-98.968-5.181-117.44-59.559-8.89-26.166-4.5-51.439 5.764-77.4-58.112-59.815-118.22-117.39-175.75-178.41-112.62 45.524-183.95-97.453-99.859-162.9 61.118-47.57 147.04-9.795 153.97 67.067 2.522 27.933-9.514 51.318-24.422 75.048 56.131 56.852 111.95 113.39 168.5 170.66 28.85-20.402 59.846-28.027 93.37-15.919 33.737 12.186 51.314 39.29 61.6 72.306h269.46c1.22-11.844 2.143-22.915 3.533-33.928 7.423-58.824 30.568-110.68 69.963-154.99 7.458-8.388 10.287-16.925 10.826-28.148 2.646-55.046 20.565-104 60.969-143.1 3.141-3.04 7.352-4.974 10.026-6.737-3.89-19.927-3.284-36.838-4.594-54.48h-255.57c-5.194 3.89-5.825 10.03-8.01 15.204-28.135 66.628-117.52 79.293-161.94 22.288-22.12-28.39-22.799-60.554-11.449-93.571 1.85-5.381 4.471-10.497 7.062-16.493-49.427-51.721-99.2-102.82-150.74-153.29-29.385 19.006-59.845 26.737-92.656 14.734-72.612-26.563-83.743-113.08-35.01-159.78 70.945-67.98 198.45-2.819 151.08 115.81 49.84 50.903 100.2 102.33 151.23 154.45 29.882-15.098 60.495-21.21 92.213-7.912 31.53 13.219 49.134 38.148 56.385 71.324h259.49c10.19-42.425 25.386-81.489 64.03-106.27-.281-8.966-2.935-17.427-2.022-26.343 3.87-37.78 32.818-42.01 38.36-53.035 15.612-31.058 43.868-47.053 73.33-61.41 24.85-12.109 44.928-11.924 52.938-17.736-1.98-29.259-3.363-59.068 9.485-89.406h-230.98c-35.171 115.93-185.22 82.399-187.75-19.742-1.133-45.667 28.825-84.587 74.436-95.333 50.373-11.868 101.07 18.552 114.32 76.932 81.689 1.444 162.53.94 242.9.298 47.752-72.786 110.21-118.57 199.82-118.31 4.386-5.828 8.754-11.403 12.883-17.15 46.61-64.88 110-106.26 184.63-131.91 16.65-5.724 35.57-17.05 66.036 1.261 27.482 16.517 30.13 14.708 53.522-7.403 16.743-15.827 33.525-31.613 50.109-47.606 9.284-8.954 3.745-5.257 155.82-4.769 8.458.028 13.16 6 19.519 9.576 14.592 8.204 17.268 20.334 17.262 36.263-.15 390.44.214 780.88.475 1171.3.02 30.24-10.74 40.876-41.065 40.815-18.936-.038-37.873-.007-56.692-.007-220.52 225.83-168.8 171.55-232.55 236.72-7.396 7.56-15.17 10.648-25.929 10.632-197.59-.298-395.19-.132-592.78-.389-10.314-.013-17.676 2.938-24.93 10.285-119.09 120.59-117.14 114.24-118.79 121.11 11.403 29.995 27.057 58.73 50.043 82.788 53.76 56.268 119.52 86.394 197.6 88.9 5.15.165 9.77-.052 13.948-4.235 51.508-51.578 70.72-69.28 81.465-81.487-4.024-47.561 9.698-70.014 43.081-71.368 28.108-1.14 50.5 20.05 50.722 48.003.274 34.369-22.129 50.938-68.942 49.91-96.96 93.488-94.964 92.816-102.4 92.916-93.617 1.253-157.54-19.242-229.39-87.523-1.878-1.785-3.401-4.336-7.955-4.384-5.078 9.5-9.247 20.453-16.038 29.42-20.739 27.383-19.189 56.274-7.976 86.25 2.089 5.585 1.781 12.27 8.262 17.465 284.56 0 265.18 4.952 276.15-5.625 24.884-23.988 50.084-47.654 74.682-71.93 6.801-6.713 13.8-9.707 23.326-9.687 115.57.241 231.14.06 346.71.442 10.993.036 19.142-2.785 26.91-10.691 81.455-82.91 163.34-165.41 244.66-248.45 22.31-22.782 31.3-8.625 52.273-14.356v-185.29c-16.797-1.26-31.517-3.313-46.057 11.79-71.445 74.21-144.35 147.02-216.58 220.48-7.077 7.198-14.426 10.292-24.943 10.267-150.48-.364-300.96-.153-451.45-.25-10.004-.007-18.868 1.516-25.233 10.027-6.29 34.721-20.872 51.631-47.4 54.961-21.476 2.696-43.985-9.86-53.39-29.782-9.205-19.493-3.856-46.849 12.105-61.909 18.623-17.572 41.858-16.37 79.557 4.892 12.166-15.48 30.042-12.543 47.243-12.542 140.99.007 281.99-.096 422.98.17 10.226.018 17.893-2.6 25.152-10 70.711-72.092 143.87-141.79 212.4-216 12.156-13.165 24.322-21.18 42.856-18.704 24.717 3.302 59.24-8.619 59.414 28.146.313 65.75.537 131.5.54 197.25.003 37.942-26.294 33.7-62.197 33.7-3.226 1.185-5.786 4.938-8.77 8.097-81.918 86.723-167.77 169.61-249.94 256.07-5.545 5.834-11.526 7.196-18.978 7.192-116.93-.06-233.86.19-350.79-.143-12.496-.035-21.648 3.434-30.37 12.49-24.195 25.125-49.26 49.415-75.047 75.1h-264.49c-1.79 5.703 1.918 7.84 4.111 10.582 23.458 29.341 53.717 51.532 80.744 77.124 9.874 9.35 19.918 12.973 33.452 12.627 122.31-3.127 125.45 4.072 137.06-7.567 13.598-13.633 30.511-16.53 48.903-12.445 2.947.654 5.742 2.16 10.707 1.023l17.358-18.926c-12.789-19.261-19.04-40.587-4.094-62.958 7.02-10.508 15.956-18.507 28.545-21.4 29.54-6.788 55.904 10.157 62.694 40.1 7.008 30.905-10.047 50.254-53.89 60.368-5.687 9.23-12.17 18.688-19.827 27.295-4.103 4.612-1.964 10.436-1.983 15.702-.091 25.539-10.534 42.917-30.994 50.998-30.197 11.927-59.236-1.438-70.238-32.286-.667-1.87-1.679-3.618-2.36-5.063-2.586-1.433 8.512-2.127-144.62-1.07-6.52.044-11.699-1.635-16.65-5.83-63.65-53.915-61.167-50.68-65.264-51.093-27.275 51.806 46.023 178.7 123.94 213.53 36.288-20.924 67.36-16.648 89.081 21.67 5.968 3.439 4.273 1.396 83.898 2.166 6.53.063 11.466-1.92 16.293-6.46 174.26-163.87 165.05-178.53 206.74-177.52 70.121 1.707 140.3.837 210.46 1.428 13.23.111 1.973 5.435 203.59-175.55 72.824-65.37 76.957-67 76.782-83.03-1.63-148.82 1.652-140.15-3.206-148.42-82.461 76.472-158.65 157.75-235.96 237.55 9.445 28.28 3.037 52.706-17.214 66.826-40.162 28.002-95.436-16.915-74.483-63.594 10.387-23.14 31.256-31.814 64.2-27.282 76.119-76.65 151.76-152.85 227.46-228.99 19.857-19.974 31.58-33.351 57.329-21.441 12.437 5.752 16.6 16.258 16.628 28.957.124 58.633-.017 117.27.329 175.9.054 9.188-5.36 14.015-11.156 19.318-259.22 237.14-185.21 164.74-280 254.14-62.717 0-171.34-.073-234.18-.292-7.347-.026-12.75 2.214-17.97 7.358-57.918 57.098-116.06 113.97-173.99 171.06-4.496 4.432-9.175 6.068-15.348 6.028-33.193-.212-66.387-.1-101.24-.1-10.696 19.333-28.094 29.935-51.808 30.837 40.91 15.462 75.93 35.697 87.177 80.31 48.542-27.186 80.299-70.41 118.81-106.1 36.099-33.454 133.24-129.85 135.2-132.16 7.357-8.655 16.17-10.66 27.017-10.581 67.443.493 134.89.252 202.33.852 12.663.113 22.13-3.666 31.943-11.852 126.97-105.94 80.956-62.693 232.44-194.17 5.646-4.9 10.686-10.284 14.443-16.9 5.399-9.509 14.244-9.092 23.263-7.113 9.08 1.992 14.398 7.737 14.414 17.112.093 54.565-.047 109.13-.026 163.7.002 5.722-3.31 9.4-6.996 12.976-43.954 42.64-42.378 40.383-43.528 43.799 8.61 40.742 4.19 57.275-18.743 70.273-44.523 25.234-93.448-19.458-74.398-62.624 10.589-23.994 30.532-33.685 62.44-30.594 13.978-13.642 27.776-27.08 41.533-40.56 2.307-2.26 3.07-5.212 3.083-8.365.523-115.73 1.092-99.72-1.34-107.06-79.758 73.98-167.33 136.72-248.7 207.29 0 13.56-.636 27.425.158 41.208 2.241 38.915-28.86 54.46-82.112 108.18-38.41 38.743-78.898 75.389-116.16 115.28-17.567 18.807-21.596 3.467-36.475 14.239-2.837 22.694-13.983 40.454-38.564 48.188 14.14 72.258 79.757 108.56 153.89 113.69 7.426.514 14.902.355 22.356.383 1.28.005 2.562-.62 5.19-1.306-6.295-21.656-11.147-40 6.445-54.992 19.35-16.487 37.15-34.673 54.445-53.32 1.593-1.717 3.585-3.174 3.83-5.786-18.684-29.012-20.299-48.372-5.586-66.953 16.748-21.151 35.663-25.01 68.892-13.347 18.907-19.756 39.992-38.176 58.328-59.156-1.521-3.96-2.636-6.763-3.68-9.591-9.986-27.081 4.498-56.42 31.99-64.817 26.902-8.218 56.478 8.282 63.792 35.588 7.244 27.045-10.842 56.225-38.417 61.914-3.315.683-6.844 2.019-10.002 1.476-14.33-2.466-23.282 5.334-32.232 14.83-27.96 29.664-43.814 42.735-47.325 48.984l1.78 23.33c23.586 13.065 35.395 32.004 29.323 59.553-3.934 17.848-20.435 33.794-38.022 36.922-23.765 4.225-38.312-3.944-57.94-33.142-19.814 15.886-37.212 34.116-55.333 51.75 2.532 11.076 7.142 20.168 15.516 27.192 47.671 39.984 100.98 46.087 158.25 25.552 33.002-11.834 59.643-32.94 82.19-59.544 10.29-12.14 15.812-25.46 15.181-41.784-.796-20.643-.246-41.341-.162-62.015.016-3.966-.951-8.156 2.047-12.384 12.08-3.074 25.15.76 37.425-2.274 3.033-4.582 1.915 18.869 1.723-263.32-.01-14.995 6.333-22.782 18.279-23.303 9.241-.403 14.836 4.01 16.8 12.813 1.192 5.34.948-10.942 1.224 275.47.028 28.615-7.294 36.121-35.544 36.931-1.292.037-2.571.584-4.569 1.064v44.423c12.94 4.346 25.315.216 37.1-4.048 25.351-9.173 37.301-29.057 40.473-54.864 1.136-9.242-1.38-2474.2-4.14-2481.3-25.888-14.086-51.82-30.718-79.286-41.89-4.904 4.206-4.27 7.483-4.755 10.412-2.096 12.673-10.306 21.062-20.106 20.515-9.136-.51-17.58-10.76-18.527-22.492-1.494-18.503 14.859-40.365 33.38-44.564 9.16-2.076 17.997-1.995 26.632 2.678 30.38 16.439 60.832 32.752 91.377 48.884 7.308 3.86 9.338 9.436 9.337 17.39-.138 911-.044 1542.5 1.477 2485 .056 34.459-12.478 61.865-39.861 82.495-11.837 8.918-25.834 13.019-39.322 15.983-3.476 4.354-2.51 8.581-2.51 12.532.064 433.54 5.001 322.41-14.222 396.43-13.884 53.463-19.94 57.374-16.523 65.563 126.01 53.104 62.95 212.25-44.442 190.18-42.086-8.65-76.253-49.041-76.99-91.015-.875-49.732 29.62-89.018 78.495-100.52 9.891-16.346 18.452-60.662 29.843-91.002 7.966-21.22 9.011-42.761 8.869-64.903-2.158-334.67.73-308.15-4.93-312.86-47.07 63.254-107.86 101.65-187.45 102.1-4.115 5.244-3.097 9.817-3.095 14.097.017 51.855-.217 103.72.494 155.56.171 12.514-3.34 21.49-12.348 30.333-245.28 240.75-191.64 192.37-218.05 212.5 31.292 61.638 10.502 112.69-34.66 138.42-84.928 48.396-182.42-59.43-121.96-141.11 32.59-44.03 91.036-52.15 132-21.138 73.854-73.06 147.16-145.27 217.79-219.63v-170.42c-3.64-4.062-6.917-4.9-10.227-5.723-48.351-12.015-48.362-34.55-77.143-31.034-40.558 4.954-80.452 1.536-118.96-13.333-38.006-14.675-28.12.599-78.537-2.386-4.593-.272-8.438.635-12.012 4.019-23.453 22.2-138.11 133.16-152.23 153.14 25.945 62.084 17.871 109.52-23.195 138.13-36.072 25.127-90.163 20.99-122.29-9.353-34.134-32.235-41.615-82.78-17.868-121.74 30.064-49.33 91.993-62.47 135.02-33.894 45.444-46.094 92.104-89.562 136.82-136.97-96.669-32.84-170.32-89.405-209.73-187.22-92.237 89.792-181.86 180.02-271.28 271.97 16.649 29.436 20.704 59.956 7.014 91.54-28.8 66.449-117.9 74.84-161.41 23.017-28.03-33.385-30.411-84.801-5.464-118.03 31.057-41.366 76.8-50.464 133.75-25.371 96.073-92.802 189.85-189.01 285.14-284.98-21.718-51.518-34.038-36.987-70.763-60.95-31.441-20.514-44.032-50.707-36.373-87.47.27-1.296.2-2.664.271-3.752-4.047-5.253-45.289-35.226-54.783-40.114-75.039 74.529-149.87 148.85-224.68 223.16 23.532 63.449 14.408 108.35-27.594 135.92-37.343 24.51-87.631 19.809-118.95-11.12-48.133-47.54-36.748-141.15 45.602-163.47 20.586-5.58 31.34-4.037 73.028 10.364 76.149-72.18 149.28-148.26 225.15-223.74-18.836-23.943-32.328-49.99-43.555-75.322-8.412-4.581 3.926-.969-265.95-2.522-12.953-.075-22.337 3.857-31.284 12.96-227.23 231.19-253.08 251.52-306.7 310.78 27.468 56.344 4.376 110.12-42.521 133.55-89.727 44.812-179.66-64.471-119.22-144.46 29.538-39.092 89.699-52.032 134.71-16.955 53.972-52.587 252.15-254.2 321.85-325.02 5.004-5.084 10.279-6.667 17.141-6.652 298.52.66 274.41 1.096 279.04-2.415-2.37-18.5-4.154-37.584-3.7-58.02h-372.92c-31.22 127.5-202.22 88.951-190.34-27.462 4.337-42.502 40.032-79.61 80.9-85.094 43.65-5.856 94.555 17.445 109.29 76.402h378.9c1.339-5.102-2.263-7.911-4.554-10.977-27.886-37.315-43.122-79.447-48.686-125.46-1.37-11.32 1.053-21.248 6.292-31.198 12.763-24.235 24.978-48.758 37.603-73.535l-23.796-37.849c-7.239-3.82 12.866-1.427-360.97-2.277-10.255-.023-17.7 2.967-25 10.342-459.05 463.75-432 433.56-434.85 440.72 57.526 120.48-95.103 202.77-164.88 110.39-27.528-36.445-25.287-86.279 4.052-122.21 23.652-28.965 81.052-49.535 131.02-16.145 3.814-.222 5.854-3.146 8.204-5.508 142.18-142.96 284.58-285.71 426.2-429.22 16.897-17.123 33.724-24.527 58.285-24.222 108.78 1.351 217.58.42 326.38.257 4.96-.008 10.1.797 16.6-2.291-18.613-54.305-27.28-110.11-22.875-168.88h-432.8c-7.542 36.144-24.974 65.738-61.642 79.18-35.824 13.135-69.346 6.577-99.59-15.551-12.143 7.389-161.53 157.16-168 168.64 36.014 52.02 19.065 113.2-17.513 141.02-73.778 56.108-190.55-18.56-142.23-126.43-38.795-40.242-77.938-80.845-116.71-121.06-5.825 1.388-7.223 5.606-9.5 8.754-66.46 91.91-200.65 23.65-170.73-82.515zm2332.6-459.92V118.38c-31.578-7.68-63.22-.934-104.74-4.333-23.297-1.907-40.603 4.868-55.71 22.892-14.09 16.81-30.71 31.497-49.58 43.329-14.21 8.91-28.492 9.88-43.35 2.297-4.516-2.305-9.124-4.594-13.206-7.557-12.877-9.347-26.422-11.449-41.153-4.97-23.727 10.436-135.54 37.383-202.52 167.69-8.371 16.286-14.547 33.406-15.877 51.507 31.29 26.653 39.162 45.965 29.324 70.96-7.776 19.757-28.138 32.11-50.347 30.54-21.023-1.484-41.6-17.312-46.068-37.216-6.503-28.97 2.58-49.512 31.672-64.528 3.041-20.918 6.99-42.003 15.708-62.22-7.61-1.938-13.55-.654-19.478.612-21.15 4.517-40.815 12.923-58.46 25.158-61.87 42.903-98.003 98.497-85.492 177.41 1.334 8.415.145 16.874-.115 25.337-2.665 86.706 44.656 100.64 89.066 127.09 77.744 46.31 68.88 133.87-1.743 154.34-35.218 10.206-40.248-.218-60.32 14.423-36.448 26.587-71.494 54.869-104.27 85.908-3.881 3.676-8.607 6.68-10.788 12.481 6.93 25.596 3.294 48.657-20.954 63.94-28.365 17.877-52.248 7.585-72.642-14.337-40.21 13.868-75.05 34.545-105.48 63.07-49.284 46.196-83.645 100.11-90.678 168.86-4.036 39.457 1.567 76.456 27.758 108.12 3.094 3.74 5.713 8.532 11.542 8.61 41.062-57.149 108.19-11.254 92.544 39.292-8.075 26.084-30.925 35.206-72.523 28.952-44.85 44.378-70.895 213.35-39.004 254.01 5.755-1.852 9.086-6.805 13.121-10.754 33.904-33.178 67.903-66.264 101.41-99.842 7.411-7.428 15.246-9.556 25.337-9.533 196.23.456 392.46.505 588.69 1.152 12.695.042 21.386-3.904 30.042-12.741 75.398-76.984 151.22-153.55 226.7-230.46 5.022-5.117 10.004-7.033 16.95-6.836 17.95.508 35.916.436 53.876.488 3.64.01 7.529.688 11.42-2.94v-116.74c-5.136-2.921-9.633-2.065-13.965-2.056-40.33.086-80.68 1.03-120.98.033-16.33-.403-27.62 4.822-38.925 16.34-65.982 67.23-132.78 133.66-199 200.66-6.601 6.68-13.37 8.92-22.437 8.878-340.67-1.585-314.34-1.844-318.51 1.948-13.425 12.224-25.404 26.362-43.328 31.656-.571 6.546-.473 12.044-1.605 17.275-5.99 27.66-30.902 43.795-57.752 37.704-27.34-6.201-44.114-34.486-37.823-63.774 5.175-24.094 32.858-40.395 58.589-34.87 9.392 2.017 17.33 7.288 25.318 10.565l84.283-85.623c-6.882-34.025-.239-55.258 22.186-67.883 18.562-10.45 42.97-7.174 58.306 7.824 35.093 34.322 11.246 102.49-55.18 84.993-6.137 7.493-14.024 14.17-17.276 24.326 7.226 4.332-6.887 1.536 266.09 2.085 9.956.02 17.327-2.789 24.25-9.774 154.31-155.7 143.14-142.68 223.16-218.85h163.94zm-512.12 1525.3c-.406-5.205-4.782-7.943-7.687-11.355-17.059-20.036-29.002-42.599-32.99-68.694-1.5-9.816-5.902-16.097-13.503-22.275-32.017-26.026-26.65-70.361 10.298-87.1 19.986-9.055 38.966-5.888 56.497 6.941 9.03 6.608 18.062 7.349 24.82.811 58.673-56.758 116.96-113.92 175.89-170.41 20.99-20.117 15.844-44.74 16.314-67.687-5.174-4.878 9.57-2.857-191.02-3.414-4.731-.013-8.44 1.503-11.796 4.79-17.158 16.8-192.67 185.58-198.39 201.08 16.8 18.773 20.623 39.432 6.551 61.176-13.967 21.58-34.146 27.266-58.852 17.824 13.356 65.302 168.55 159.97 223.87 138.31zm-325.57-2036.3c1.955 4.71 4.016 9.69 6.087 14.666 11.126 26.734-4.31 66.106-39.158 70.085-13.797 1.576-27.552 8.62-37.162 20.828-26.754 33.987-33.903 72.938-29.789 114.86.26 2.636.332 5.498 3.18 7.209 3.857 1.138 7.133-.922 10.52-2.317 178.3-73.398 318.07-16.436 321.5-89.626 3.512-74.843-111.36-49.906-135.92-160.46-2.474-11.135-3.542-22.583-5.247-33.841-34.036 2.68-85.856 27.893-94.011 58.598zm87.048 224.57c-3.973-4.283-7.2-3.16-10.001-2.792-48.08 6.31-95.575 15.18-141.03 32.816-50.404 19.556-80.922 57.19-97.273 107.48-2.197 6.757-4.765 13.964-.987 23.123 30.616-25.782 64.975-42.358 102.08-51.726 25.901-45.588 33.047-49.531 77.493-42.09 21.733-22.844 45.155-45.377 69.71-66.81zm-893.33 620.98c-34.09.028-62.748 28.205-62.612 61.561.135 33.23 28.514 60.731 62.432 60.501 33.843-.23 60.48-26.586 60.399-59.761-.086-34.891-26.607-62.328-60.22-62.301zm-336.24 843.88c37.18.975 58.984-34.524 58.194-61.512-1-34.116-28.588-60.809-62.458-60.05-33.67.755-60.068 28.326-59.27 61.905.833 35.053 27.87 60.441 63.535 59.657zm1213.9 538.72c-33.072.093-60.278 27.555-60.483 61.052-.196 32.154 28.275 59.481 62.109 59.612 75.892.294 79.004-120.89-1.626-120.66zm-1198.6-1505.7c35.322-.455 60.528-26.335 60.014-61.62-.482-33.095-26.527-59.528-58.347-59.217-32.048.313-59.948 28.251-59.704 59.784.257 33.26 27.057 61.452 58.036 61.054zm-275.6 217.14c-34.217-.162-59.911 25.185-60.238 59.425-.322 33.716 25.164 59.858 58.428 59.93 33.95.074 59.227-25.112 59.167-58.955-.059-33.104-25.838-60.251-57.357-60.4m230.27 273.25c-.125 34.734 24.257 60.22 57.725 60.339 34.126.121 59.96-26.143 59.91-60.908-.043-31.198-27.667-58.676-59.3-58.987-31.112-.305-58.22 27.369-58.335 59.556m1986.1 1317.4c-33.28-.568-59.404 25.908-60.062 60.873-.595 31.596 26.088 58.273 58.868 58.854 31.138.553 57.525-26.074 57.886-58.412.36-32.236-26.043-60.792-56.692-61.316zm-977.61-2741.6c.18-33.138-25.267-59.614-57.404-59.724-32.576-.112-59.772 26.042-60.01 57.712-.59 78.433 116.98 81.508 117.41 2.012zm-721.31 2062.1c-30.458-.344-56.728 26.498-57.065 58.307-.348 32.869 25.52 59.663 57.759 59.825 31.405.158 60.38-26.756 60.862-56.532.533-32.958-27.706-61.217-61.556-61.6m515.57 74.948c.119-33.845-25.557-60.92-57.778-60.927-32.185-.008-59.54 26.967-59.43 58.603.117 33.269 26.58 60.201 59.005 60.048 33.149-.157 58.088-24.89 58.203-57.724m-367.4-499.05c-.07 32.898 25.35 58.157 58.845 58.47 31.292.292 58.25-26.718 58.34-58.451.096-33.301-25.631-60.376-57.297-60.3-33.412.08-59.817 26.658-59.888 60.281m493.66 777.18c.187-32.371-25.267-58.198-57.472-58.316-32.418-.118-60.474 25.712-60.72 55.903-.278 34.106 26.199 60.562 61.239 61.191 31.527.566 56.76-25.477 56.953-58.778m572.54 448.35c31.614.02 57.447-26.994 57.44-60.065-.005-32.003-25.843-57.348-58.612-57.495-32.086-.143-57.852 26.28-57.965 59.444-.11 32.378 26.059 58.095 59.137 58.116m-1338.2-2321.5c-.097 30.988 26.908 57.884 58.536 58.302 31.466.415 58.012-27.54 57.887-60.962-.12-32.027-25.497-57.144-57.657-57.065-33.046.081-58.661 26.114-58.766 59.725m290.01-431.34c.416-31.158-25.802-57.855-57.182-58.226-31.314-.37-59.928 26.696-60.234 56.976-.339 33.536 24.704 60.286 56.746 60.614 33.573.343 60.22-25.73 60.669-59.364zm125.9 741.53c-.248-31.649-25.73-57.997-56.194-58.105-32.79-.116-58.903 26.014-58.707 58.744.475 79.313 115.52 78.3 114.9-.639zm163.97-459.62c-.051-32.397-25.126-57.547-57.248-57.42-75.9.301-75.532 115.11-1.291 115.15 32.168.02 58.589-26.038 58.539-57.733zm730.36 1695.8c-8.285.235-14.902 7.38-14.914 16.102-.013 9.132 6.985 16.245 15.898 16.159 9.293-.089 16.347-6.99 16.195-15.844-.155-9.004-8.179-16.673-17.178-16.418zm-279.66-822.94c9.238-.18 17.012-8.042 16.71-16.899-.272-8.028-6.991-14.067-15.64-14.056-21.762.028-23.237 31.388-1.07 30.955m287.46-1246.6c.177-8.738-7.214-16.239-15.976-16.213-7.998.023-15.806 7.39-16.165 15.248-.369 8.086 7.445 16.427 15.779 16.845 8.467.424 16.183-7.064 16.362-15.88m470.92 1790.1c-7.899.297-15.133 8.266-14.89 16.399.279 9.248 7.497 16.223 16.345 15.794 8.584-.417 14.993-7.376 14.865-16.143-.128-8.79-7.835-16.369-16.32-16.05m-773.17 95.851c-.08-21.061-31.74-19.198-31.788.566-.05 20.67 31.873 21.83 31.788-.566m190.95-1011.8c9.334.319 17.363-6.985 17.554-15.97.176-8.274-6.062-14.669-14.592-14.961-22.241-.761-21.31 30.305-2.963 30.931zm-11.954 726.41c8.048-.049 15.636-7.567 15.728-15.584.092-8.029-7.29-15.416-15.575-15.586-8.645-.178-16.068 6.634-16.127 14.801-.063 8.678 7.493 16.421 15.974 16.369m-15.775-246.52c22.819.017 23.44-28.527 1.233-28.517-9.647.005-15.57 5.005-15.712 13.263-.171 10.017 4.792 15.247 14.478 15.254zm-46.42 330.84c-.142-8.752-7.003-15.571-15.367-15.27-8.053.29-14.38 6.89-14.474 15.102-.24 20.888 30.17 20.512 29.84.168zm603.2 298.33c8.553-.148 15.938-7.83 15.872-16.509-.06-8.028-6.017-13.943-14.186-14.093-8.866-.162-16.623 7.208-16.606 15.778.016 8.009 7.013 14.961 14.92 14.824m-695.26-994.17c-8.279-.056-14.627 6.477-14.493 14.916.142 8.969 7.617 17.007 15.636 16.815 17.887-.429 18.938-31.595-1.143-31.732zm-23.974-458.9c-.37-18.629-31.031-18.164-30.206 2.45.324 8.093 6.41 14.004 14.27 13.858 8.625-.16 16.105-7.815 15.936-16.309zm546.85 1029.2c21.645.111 20.002-27.936-.017-28.688-18.47-.693-20.942 28.58.017 28.688m-704.28-628.8c-.478-20.664-29.531-17.428-29.61.902-.084 20.01 30.09 19.84 29.61-.902m747.93 1150c-8.327-.248-15.385 6.8-15.357 15.333.026 8.068 5.377 13.944 12.745 13.993 8.878.06 16.768-7.125 16.842-15.337.069-7.652-6.132-13.748-14.23-13.99zm46.796 72.588c.156-7.744-5.715-14.085-12.955-13.991-6.792.088-12.961 6.933-12.964 14.386-.003 7.196 5.858 13.519 12.463 13.445 7.117-.08 13.308-6.446 13.456-13.84m-521.8-119.91c-7.656 2.436-13.522 6.488-12.713 15.503.524 5.84 4.795 8.72 10.434 8.994 6.263.303 11.646-1.839 13.022-8.542 1.734-8.444-3.205-13.06-10.743-15.956zm-162-1796c6.817 1.699 10.623-1.224 12.348-6.392 1.515-4.539.862-9.087-4.552-11.678-4.414 5.187-8.118 10.174-7.796 18.07"/>
        <path d="M1873.9 2070.4c-28.733.03-50.189-21.29-50.093-49.775.095-28.132 22.922-51.099 50.827-51.138 65.649-.09 68.766 100.84-.734 100.91zm15.253-50.775c-.05-7.895-7.331-15.062-14.998-14.765-8.096.314-14.36 7.111-14.23 15.441.133 8.512 6.687 15.783 14.128 15.673 7.592-.112 15.152-8.297 15.101-16.349z"/>
        <path d="M3181.2 2025c-.192 28.096-21.673 49.694-49.36 49.631-28.161-.065-49.696-21.431-49.688-49.3.008-27.697 22.752-50.579 50.153-50.458 27.537.121 49.086 22.214 48.895 50.127m-47.961 12.702c18.087.199 16.098-26.36-1.685-26.624-16.849-.25-17.349 26.414 1.685 26.624"/>
        <path d="M1824.6 1776c.008-27.131 21.946-49.967 48.248-50.223 65.586-.639 68.095 102.34 1.982 102.1-27.648-.102-50.239-23.432-50.23-51.872zm48.466 17.263c8.792.26 16.178-7.009 16.195-15.937.016-8.452-6.139-15.229-14.164-15.595-19.787-.904-22.008 30.944-2.03 31.532z"/>
        <path d="M3184.7 1780.8c-.2 28.701-21.432 49.319-50.633 49.17-27.592-.14-48.487-22.15-48.826-50.319-.382-31.804 30.644-49.648 51.585-49.506 25.538.173 48.06 24.136 47.874 50.655m-35.086-.952c-.16-18.518-28.74-19.402-28.39.45.328 18.635 28.545 17.474 28.39-.45"/>
        <path d="m3519.4 1199.4 3.75-11.262c-1.828-5.556-4.34-9.835-9.4-14.025-21.998 6.275-41.223-.046-57.104-18.386-25.852 0-209.47.804-306.68 1.526-8.213.06-13.85-2.579-19.547-8.253-171.27-170.53-259.04-275.26-321.17-340.2-20.667 7.586-40.652 9.959-59.078-4.39-43.448-33.835-17.411-90.732 27.053-92.49 33.894-1.341 52.95 22.297 52.325 65.605 95.112 102.43 137.64 156.82 302.27 323.18 14.7 14.855 29.15 21.28 50.375 20.872 173.46-3.338 254.16 1.071 264.24-3.03 7.82-18.005 18.469-34.69 40.403-39.46 11.675-2.54 22.87-.943 33.489 4.695 25.538 13.56 31.804 36.25 19.108 70.29 2.186 6.09 7.17 10.15 11.697 14.308 42.916 1.769 60.099 12.458 65.122 40.326 4.166 23.117-7.744 46.19-28.517 55.24-24.197 10.542-46.804 1.682-67.121-26.393-4.416-1.7-352.07-.88-395.2-.747-10.53.032-17.741-3.47-24.89-10.544-216.76-214.54-203.88-201.86-213.54-206.17-9.145 3.028-18.415 6.11-28.411 6.18-60.791.43-64.521-85.692-11.951-98.472 32.22-7.833 62.802 15.79 63 49.5.097 16.633-7.413 4.315 204.69 212.61 8.858 8.698 17.896 12.147 30.443 12.094 385.43-1.632 366.6 1.816 374.65-2.6zm-723.64-435.67c-.062-9.153-7.137-16.75-15.566-16.715-8.574.036-15.882 7.636-15.817 16.448.153 20.564 31.524 21.097 31.383.267m77.232 212.8c.035-19.624-29.22-20.346-28.77-.244.435 19.427 28.733 20.71 28.77.244m708.17 240.3c-.14-7.399-7.123-14.309-14.472-14.32-7.443-.011-14.464 7.205-14.077 14.467.406 7.618 7.072 14.095 14.584 14.171 7.592.077 14.11-6.607 13.964-14.318zm-84.017-77.456c7.922.059 14.185-5.582 14.212-12.8.026-7.114-6.236-13.352-13.694-13.642-7.359-.285-13.918 5.786-14.048 13.003-.134 7.447 5.84 13.382 13.53 13.439"/>
        <path d="M3161 572.26c3.175-.027 5.117-2.11 7.37-3.532 26.051-16.462 54.511-8.799 68.738 18.52 11.832 22.72.662 52.491-23.616 62.947-27.007 11.631-55.945-.525-64.267-28.984-3.31-11.32-9.58-18.85-17.325-26.363-48.126-46.687-96.067-93.568-144.44-140-10.01-9.607-15.045-20.31-14.899-34.069.185-17.269-.388-34.545-.346-51.817.017-7.203-2.242-12.824-7.476-18.036-24.965-24.86-50.704-48.888-76.816-72.524-2.71-2.453-5.326-5.282-10.378-6.038-41.37 29.335-85.557-7.144-79.334-46.118 3.882-24.311 26.958-43.44 51.83-42.964 22.682.433 41.381 18.65 44.018 43.766.726 6.917 4.712 10.923 9.041 15.183 29.692 29.213 59.16 58.659 89.215 87.492 9.966 9.56 15.086 19.65 14.112 33.877-1.107 16.172.18 32.496.006 48.75-.218 20.526 4.911 15.754 145.17 152.75 2.875 2.807 5.391 6.138 9.397 7.158zm-313.65-325.43c18.015-1.438 14.606-27.664-.105-28.149-6.498-.215-13.225 6.603-13.64 13.827-.404 6.988 5.776 13.801 13.745 14.322m359.49 361.23c-.415-18.419-26.349-18.525-26.271-1.059.075 16.64 25.075 18.176 26.271 1.059"/>
        <path d="M2960.6 728.94c-7.243-25.267-16.95-48.172-26.36-72.037-50.978 10.911-89.259-43.675-61.803-83.963 15.064-22.105 45.157-30.238 69.619-18.817 23.73 11.08 37.346 39.133 29.395 63.59-3.698 11.373-3.466 21.351.753 32.328 25.75 67.001 20.225 69.91 34.639 75.304 51.236 19.172 37.477 89.634-16.15 96.567-22.005 2.845-44.237-10.286-52.08-30.76-7.23-18.87-.9-42.248 15.604-57.332 1.976-1.806 4.26-3.273 6.382-4.882zm-42.784-143.69c-10.735.134-18.625 7.992-18.61 18.536.014 9.82 8.785 17.927 19.446 17.973 25.395.11 25.204-36.833-.837-36.508zm69.143 202.34c21.912.08 20.384-33.583-.108-33.21-9.16.167-16.11 7.01-16.309 16.058-.204 9.306 7.274 17.118 16.417 17.151z"/>
        <path d="M2856.1 377.84c30.335-.14 54.653 24.131 54.84 54.737.193 31.533-22.672 54.336-54.422 54.273-30.536-.06-55.093-24.164-55.452-54.425-.356-30.014 24.274-54.443 55.034-54.585m-17.599 54.602c.138 27.186 36.307 22.425 36.326-.58.008-10.003-8.705-19.33-18.141-19.419-10.354-.098-18.244 8.578-18.186 20z"/>
        <path d="M3377.1 1035.1c-.745 66.923-99.223 63.98-98.667-.664.242-28.094 22.906-50.52 50.543-50.01 28.222.52 48.445 21.814 48.124 50.674m-35.729-.04c.38-17.5-26.247-21.344-27.037-1.636-.797 19.912 26.628 20.463 27.037 1.635"/>
        <path d="M3129.1 917.69c-27.998-.135-51.664-22.954-51.494-49.651.175-27.523 24.084-50.927 51.802-50.709 26.517.209 48.594 24.368 48.235 52.785-.325 25.832-22.638 47.7-48.543 47.575m12.85-49.861c.038-7.501-6.55-14.31-13.993-14.463-7.462-.153-14.464 6.328-14.783 13.685-.34 7.82 6.56 14.917 14.517 14.932 7.474.015 14.222-6.683 14.26-14.155z"/>
        <path d="M2777 549.6c-.166 26.569-22.329 49.621-47.59 49.501-27.992-.133-51.111-23.537-50.658-51.281.434-26.551 23.904-49.131 50.888-48.959 26.085.166 47.532 23.144 47.359 50.739zm-47.686-14.879c-17.304-.384-19.272 28.296-1.896 28.756 7.892.209 14.28-5.69 14.652-13.533.395-8.29-5.276-15.057-12.756-15.223"/>
        <path d="M2166.5 783.76c-10.957-35.765-6.876-54.663 12.726-68.853 42.913-31.065 93.21 11.816 78.572 56.954-7.13 21.987-27.175 32.117-66.331 32.586-109.27 116.25-216.64 236.12-330.51 351.05h-305.57c-25.084 23.265-30.828 24.89-70.342 22.719-4.685 5.137-9.537 10.557-12.5 17.213 3.274 5.577-20.44 2.503 390.53 2.866 9.606.009 16.028-2.966 22.818-9.921 208.16-213.23 201.15-198.46 202.74-215.33 2.202-23.332 17.069-40.686 37.401-45.475 48.561-11.439 82.341 42.294 53.344 79.628-14.091 18.142-36.465 24.387-58.368 16.104-5.033-1.903-9.842-4.402-15.322-6.884-25.201 21.536-165.42 166.94-194.29 197.83-12.94 13.847-25.408 18.66-43.761 18.548-122.67-.75-245.35-.402-368.02-.374-6.391.002-12.85-.48-19.951 1.439-7.157 17.177-15.887 33.445-35.98 39.348-40.712 11.96-69.115-23.508-64.158-55.441 4.057-26.137 24.137-40.265 61.038-42.46 7.326-5.72 13.801-12.89 18.43-21.185-5.947-36.08 5.688-59.683 33.508-68.744 26.047-8.484 47.084 2.8 62.813 33.73 3.526 2.223-14.668 1.196 281.31 1.403 6.622.005 12.271-.736 17.219-6.337 54.755-61.988 113.92-119.82 170.26-180.33 157.87-169.55 104.25-116.24 142.4-150.08zm43.863-12.962c7.831-.213 14.374-7.488 14.058-15.631-.31-7.991-7.26-14.828-15.145-14.896-8.112-.07-14.673 6.75-14.513 15.087.164 8.56 7.342 15.665 15.6 15.44m-55.255 205.8c.024-8.167-7.24-15.166-15.732-15.156-7.797.009-13.542 6.16-13.502 14.46.099 20.88 29.181 18.857 29.234.696m-722.8 234.49c-21.229-.556-23.79 28.746-5.262 28.775 8.59.013 17.913-8.515 17.495-16.459-.433-8.245-5.954-11.477-12.233-12.316m75.426-92.914c-20.419.456-19.717 28.668-.56 27.77 18.369-.862 20.424-28.213.56-27.77"/>
        <path d="M1844.1 573.21c9.05-4.101 4.311-2.977 136.35-134.8 7.313-7.301 10.367-14.859 9.892-25.186-.791-17.238.234-34.556-.405-51.807-.656-17.709 4.284-20.638 106.29-117.89 6.225-5.935 9.81-12.106 11.332-20.613 3.602-20.143 22.62-38.719 39.695-40.047 61.485-4.783 74.097 63.094 39.841 88.831-15.807 11.876-32.889 13.049-50.572 4.16-4.5-2.262-8.462-5.709-13.553-6.104-3.18.347-4.971 2.471-6.938 4.31-28.95 27.066-57.094 54.951-84.9 83.19-3.878 3.94-5.561 8.027-5.5 13.49.196 17.611-.652 35.261.234 52.828.763 15.12-4.787 26.152-15.458 36.603-69.19 67.77-136.16 137.5-151.19 148.96-4.153 3.168-5.652 9.759-8.496 14.71-20.917 36.408-68.098 40.75-92.535 8.535-16.783-22.124-13.692-51.285 7.347-69.324 20.594-17.657 53.953-16.253 72.028 3.04 2.057 2.195 4.072 4.43 6.537 7.114zm-28.713 29.742c.518-21.424-30.033-22.691-30.658-1.144-.617 21.25 30.143 22.46 30.658 1.144m340.23-357.43c18.386.145 18.307-27.475.75-27.725-17.297-.246-19.177 27.579-.75 27.725"/>
        <path d="M2015.9 725.1c10.576-20.948 20.099-42.952 29.698-66.542-16.528-17.327-25.428-37.646-16.92-62.312 6.211-18.006 18.605-30.62 35.621-38.366 30.472-13.87 66.756 1.473 78.857 32.846 13.678 35.461-8.579 65.849-61.507 82.918-11.361 21.784-21.064 45.102-30.814 67.669 20.856 31.411 22.292 47.809 6.552 67.977-13.838 17.731-37.086 24.74-57.284 17.272-45.639-16.876-53.287-81.382 15.798-101.46zm90.917-115.91c.042-11.436-7.842-19.847-18.633-19.878-11.953-.034-25.098 12.981-25.186 24.94-.073 9.856 7.937 17.485 18.505 17.626 13.368.178 25.27-10.49 25.315-22.687zm-74.584 171.14c.291-8.972-6.851-17.061-15.203-17.218-8.413-.158-16.272 7.628-16.38 16.228-.259 20.655 30.895 22.177 31.583.99"/>
        <path d="M2090.8 433.04c.065-30.463 24.163-54.437 54.821-54.539 31.733-.105 56.222 24.334 55.936 55.823-.643 70.596-110.92 74.312-110.76-1.284zm35.702.492c-.431 27.582 38.914 26.478 39.136-1.111.201-25.036-38.717-25.7-39.136 1.111"/>
        <path d="M2268.2 498.43c27.534-.109 49.434 22.522 49.464 51.116.03 28.203-21.257 49.123-49.901 49.04-27.947-.08-50.805-21.923-50.992-48.727-.203-29.048 22.062-51.313 51.429-51.429m-.477 65.308c19.032-.236 17.83-29.295-.82-29.028-20.354.291-18.673 29.27.82 29.028"/>
        <path d="M1882.6 911.93c-26.852.058-50.058-22.791-50.389-49.614-.342-27.706 23.294-51.586 50.861-51.386 27.916.203 48.46 22.21 48.406 51.855-.05 27.38-21.638 49.086-48.878 49.145m13.391-50.642c.118-8.17-5.944-14.814-13.484-14.781-7.446.033-14.698 7.653-14.639 15.383.061 8.132 6.137 14.58 13.762 14.606 8.02.028 14.236-6.555 14.361-15.208"/>
        <path d="M1629.9 1037.7c.008-27.192 21.818-50.306 47.231-50.053 27.954.278 51.104 22.558 50.881 48.969-.235 27.849-20.802 49.35-47.408 49.56-28.616.227-50.712-20.898-50.704-48.476m62.918.117c.205-8.696-5.916-15.595-13.86-15.625-7.828-.029-14.678 6.822-14.96 14.961-.65 18.804 28.359 20.275 28.82.664"/>
    </g>
</svg>
